{
	"patcher" : 	{
		"fileversion" : 1,
		"appversion" : 		{
			"major" : 7,
			"minor" : 3,
			"revision" : 5,
			"architecture" : "x86",
			"modernui" : 1
		}
,
		"rect" : [ 35.0, 56.0, 1209.0, 810.0 ],
		"bglocked" : 0,
		"openinpresentation" : 0,
		"default_fontsize" : 12.0,
		"default_fontface" : 0,
		"default_fontname" : "Arial",
		"gridonopen" : 1,
		"gridsize" : [ 15.0, 15.0 ],
		"gridsnaponopen" : 1,
		"objectsnaponopen" : 1,
		"statusbarvisible" : 2,
		"toolbarvisible" : 1,
		"lefttoolbarpinned" : 0,
		"toptoolbarpinned" : 0,
		"righttoolbarpinned" : 0,
		"bottomtoolbarpinned" : 0,
		"toolbars_unpinned_last_save" : 0,
		"tallnewobj" : 0,
		"boxanimatetime" : 200,
		"enablehscroll" : 1,
		"enablevscroll" : 1,
		"devicewidth" : 0.0,
		"description" : "",
		"digest" : "",
		"tags" : "",
		"style" : "",
		"subpatcher_template" : "",
		"boxes" : [ 			{
				"box" : 				{
					"id" : "obj-44",
					"maxclass" : "message",
					"numinlets" : 2,
					"numoutlets" : 1,
					"outlettype" : [ "" ],
					"patching_rect" : [ 1055.5, 863.0, 29.5, 22.0 ],
					"style" : "",
					"text" : "0"
				}

			}
, 			{
				"box" : 				{
					"id" : "obj-45",
					"maxclass" : "button",
					"numinlets" : 1,
					"numoutlets" : 1,
					"outlettype" : [ "bang" ],
					"patching_rect" : [ 1016.0, 863.0, 24.0, 24.0 ],
					"style" : ""
				}

			}
, 			{
				"box" : 				{
					"id" : "obj-46",
					"int" : 1,
					"maxclass" : "gswitch",
					"numinlets" : 3,
					"numoutlets" : 1,
					"outlettype" : [ "" ],
					"parameter_enable" : 0,
					"patching_rect" : [ 1098.0, 863.0, 42.0, 22.0 ],
					"style" : ""
				}

			}
, 			{
				"box" : 				{
					"id" : "obj-47",
					"maxclass" : "number",
					"numinlets" : 1,
					"numoutlets" : 2,
					"outlettype" : [ "", "bang" ],
					"parameter_enable" : 0,
					"patching_rect" : [ 958.5, 863.0, 50.0, 22.0 ],
					"style" : ""
				}

			}
, 			{
				"box" : 				{
					"id" : "obj-48",
					"maxclass" : "newobj",
					"numinlets" : 6,
					"numoutlets" : 1,
					"outlettype" : [ "" ],
					"patching_rect" : [ 845.0, 863.0, 105.0, 22.0 ],
					"style" : "",
					"text" : "scale 0 1024 0 80"
				}

			}
, 			{
				"box" : 				{
					"id" : "obj-49",
					"maxclass" : "message",
					"numinlets" : 2,
					"numoutlets" : 1,
					"outlettype" : [ "" ],
					"patching_rect" : [ 845.0, 896.0, 66.0, 22.0 ],
					"style" : "",
					"text" : "/vPWM $1"
				}

			}
, 			{
				"box" : 				{
					"id" : "obj-50",
					"maxclass" : "newobj",
					"numinlets" : 1,
					"numoutlets" : 0,
					"patching_rect" : [ 918.0, 896.0, 167.0, 22.0 ],
					"style" : "",
					"text" : "udpsend 192.168.1.132 3333"
				}

			}
, 			{
				"box" : 				{
					"id" : "obj-34",
					"maxclass" : "number",
					"numinlets" : 1,
					"numoutlets" : 2,
					"outlettype" : [ "", "bang" ],
					"parameter_enable" : 0,
					"patching_rect" : [ 776.75, 375.0, 50.0, 22.0 ],
					"style" : ""
				}

			}
, 			{
				"box" : 				{
					"id" : "obj-35",
					"maxclass" : "message",
					"numinlets" : 2,
					"numoutlets" : 1,
					"outlettype" : [ "" ],
					"patching_rect" : [ 722.75, 375.0, 50.0, 22.0 ],
					"style" : "",
					"text" : "0"
				}

			}
, 			{
				"box" : 				{
					"id" : "obj-36",
					"maxclass" : "newobj",
					"numinlets" : 2,
					"numoutlets" : 1,
					"outlettype" : [ "bang" ],
					"patching_rect" : [ 722.75, 342.0, 65.0, 22.0 ],
					"style" : "",
					"text" : "metro 150"
				}

			}
, 			{
				"box" : 				{
					"id" : "obj-37",
					"maxclass" : "number",
					"maximum" : 100,
					"minimum" : 0,
					"numinlets" : 1,
					"numoutlets" : 2,
					"outlettype" : [ "", "bang" ],
					"outputonclick" : 1,
					"parameter_enable" : 0,
					"patching_rect" : [ 1047.5, 347.0, 50.0, 22.0 ],
					"style" : ""
				}

			}
, 			{
				"box" : 				{
					"id" : "obj-38",
					"maxclass" : "button",
					"numinlets" : 1,
					"numoutlets" : 1,
					"outlettype" : [ "bang" ],
					"patching_rect" : [ 1012.25, 346.0, 24.0, 24.0 ],
					"style" : ""
				}

			}
, 			{
				"box" : 				{
					"id" : "obj-39",
					"int" : 1,
					"maxclass" : "gswitch",
					"numinlets" : 3,
					"numoutlets" : 1,
					"outlettype" : [ "" ],
					"parameter_enable" : 0,
					"patching_rect" : [ 1108.25, 346.0, 42.0, 22.0 ],
					"style" : ""
				}

			}
, 			{
				"box" : 				{
					"id" : "obj-40",
					"maxclass" : "number",
					"numinlets" : 1,
					"numoutlets" : 2,
					"outlettype" : [ "", "bang" ],
					"parameter_enable" : 0,
					"patching_rect" : [ 954.75, 346.0, 50.0, 22.0 ],
					"style" : ""
				}

			}
, 			{
				"box" : 				{
					"id" : "obj-41",
					"maxclass" : "newobj",
					"numinlets" : 6,
					"numoutlets" : 1,
					"outlettype" : [ "" ],
					"patching_rect" : [ 841.25, 346.0, 112.0, 22.0 ],
					"style" : "",
					"text" : "scale 0 1024 0 100"
				}

			}
, 			{
				"box" : 				{
					"id" : "obj-42",
					"maxclass" : "message",
					"numinlets" : 2,
					"numoutlets" : 1,
					"outlettype" : [ "" ],
					"patching_rect" : [ 841.25, 379.0, 66.0, 22.0 ],
					"style" : "",
					"text" : "/vPWM $1"
				}

			}
, 			{
				"box" : 				{
					"id" : "obj-43",
					"maxclass" : "newobj",
					"numinlets" : 1,
					"numoutlets" : 0,
					"patching_rect" : [ 914.25, 379.0, 160.0, 22.0 ],
					"style" : "",
					"text" : "udpsend 192.168.1.53 3333"
				}

			}
, 			{
				"box" : 				{
					"id" : "obj-341",
					"maxclass" : "number",
					"numinlets" : 1,
					"numoutlets" : 2,
					"outlettype" : [ "", "bang" ],
					"parameter_enable" : 0,
					"patching_rect" : [ 776.75, 765.0, 50.0, 22.0 ],
					"style" : ""
				}

			}
, 			{
				"box" : 				{
					"id" : "obj-342",
					"maxclass" : "message",
					"numinlets" : 2,
					"numoutlets" : 1,
					"outlettype" : [ "" ],
					"patching_rect" : [ 722.75, 765.0, 50.0, 22.0 ],
					"style" : "",
					"text" : "0"
				}

			}
, 			{
				"box" : 				{
					"id" : "obj-343",
					"maxclass" : "newobj",
					"numinlets" : 2,
					"numoutlets" : 1,
					"outlettype" : [ "bang" ],
					"patching_rect" : [ 722.75, 732.0, 65.0, 22.0 ],
					"style" : "",
					"text" : "metro 200"
				}

			}
, 			{
				"box" : 				{
					"id" : "obj-338",
					"maxclass" : "number",
					"numinlets" : 1,
					"numoutlets" : 2,
					"outlettype" : [ "", "bang" ],
					"parameter_enable" : 0,
					"patching_rect" : [ 776.75, 634.0, 50.0, 22.0 ],
					"style" : ""
				}

			}
, 			{
				"box" : 				{
					"id" : "obj-339",
					"maxclass" : "message",
					"numinlets" : 2,
					"numoutlets" : 1,
					"outlettype" : [ "" ],
					"patching_rect" : [ 722.75, 634.0, 50.0, 22.0 ],
					"style" : "",
					"text" : "191"
				}

			}
, 			{
				"box" : 				{
					"id" : "obj-340",
					"maxclass" : "newobj",
					"numinlets" : 2,
					"numoutlets" : 1,
					"outlettype" : [ "bang" ],
					"patching_rect" : [ 722.75, 601.0, 65.0, 22.0 ],
					"style" : "",
					"text" : "metro 200"
				}

			}
, 			{
				"box" : 				{
					"id" : "obj-332",
					"maxclass" : "number",
					"numinlets" : 1,
					"numoutlets" : 2,
					"outlettype" : [ "", "bang" ],
					"parameter_enable" : 0,
					"patching_rect" : [ 781.75, 896.0, 50.0, 22.0 ],
					"style" : ""
				}

			}
, 			{
				"box" : 				{
					"id" : "obj-333",
					"maxclass" : "message",
					"numinlets" : 2,
					"numoutlets" : 1,
					"outlettype" : [ "" ],
					"patching_rect" : [ 727.75, 896.0, 50.0, 22.0 ],
					"style" : "",
					"text" : "0"
				}

			}
, 			{
				"box" : 				{
					"id" : "obj-334",
					"maxclass" : "newobj",
					"numinlets" : 2,
					"numoutlets" : 1,
					"outlettype" : [ "bang" ],
					"patching_rect" : [ 727.75, 863.0, 65.0, 22.0 ],
					"style" : "",
					"text" : "metro 200"
				}

			}
, 			{
				"box" : 				{
					"id" : "obj-329",
					"maxclass" : "number",
					"numinlets" : 1,
					"numoutlets" : 2,
					"outlettype" : [ "", "bang" ],
					"parameter_enable" : 0,
					"patching_rect" : [ 776.75, 509.0, 50.0, 22.0 ],
					"style" : ""
				}

			}
, 			{
				"box" : 				{
					"id" : "obj-330",
					"maxclass" : "message",
					"numinlets" : 2,
					"numoutlets" : 1,
					"outlettype" : [ "" ],
					"patching_rect" : [ 722.75, 509.0, 50.0, 22.0 ],
					"style" : "",
					"text" : "0"
				}

			}
, 			{
				"box" : 				{
					"id" : "obj-331",
					"maxclass" : "newobj",
					"numinlets" : 2,
					"numoutlets" : 1,
					"outlettype" : [ "bang" ],
					"patching_rect" : [ 722.75, 476.0, 65.0, 22.0 ],
					"style" : "",
					"text" : "metro 200"
				}

			}
, 			{
				"box" : 				{
					"id" : "obj-325",
					"maxclass" : "toggle",
					"numinlets" : 1,
					"numoutlets" : 1,
					"outlettype" : [ "int" ],
					"parameter_enable" : 0,
					"patching_rect" : [ 702.75, 177.0, 24.0, 24.0 ],
					"style" : ""
				}

			}
, 			{
				"box" : 				{
					"id" : "obj-321",
					"maxclass" : "newobj",
					"numinlets" : 1,
					"numoutlets" : 0,
					"patching_rect" : [ 918.0, 509.0, 167.0, 22.0 ],
					"style" : "",
					"text" : "udpsend 192.168.1.129 3333"
				}

			}
, 			{
				"box" : 				{
					"id" : "obj-307",
					"linecount" : 6,
					"maxclass" : "comment",
					"numinlets" : 1,
					"numoutlets" : 0,
					"patching_rect" : [ 606.0, 52.0, 150.0, 87.0 ],
					"style" : "",
					"text" : "33\n53\n129\n141\n132\n199"
				}

			}
, 			{
				"box" : 				{
					"id" : "obj-300",
					"maxclass" : "message",
					"numinlets" : 2,
					"numoutlets" : 1,
					"outlettype" : [ "" ],
					"patching_rect" : [ 337.75, 601.0, 50.0, 22.0 ],
					"style" : "",
					"text" : "0"
				}

			}
, 			{
				"box" : 				{
					"id" : "obj-301",
					"maxclass" : "message",
					"numinlets" : 2,
					"numoutlets" : 1,
					"outlettype" : [ "" ],
					"patching_rect" : [ 396.0, 601.0, 50.0, 22.0 ],
					"style" : "",
					"text" : "1023"
				}

			}
, 			{
				"box" : 				{
					"id" : "obj-302",
					"maxclass" : "number",
					"minimum" : 0,
					"numinlets" : 1,
					"numoutlets" : 2,
					"outlettype" : [ "", "bang" ],
					"parameter_enable" : 0,
					"patching_rect" : [ 337.75, 634.0, 50.0, 22.0 ],
					"style" : ""
				}

			}
, 			{
				"box" : 				{
					"id" : "obj-303",
					"maxclass" : "number",
					"minimum" : 0,
					"numinlets" : 1,
					"numoutlets" : 2,
					"outlettype" : [ "", "bang" ],
					"parameter_enable" : 0,
					"patching_rect" : [ 396.0, 634.0, 50.0, 22.0 ],
					"style" : ""
				}

			}
, 			{
				"box" : 				{
					"id" : "obj-297",
					"maxclass" : "comment",
					"numinlets" : 1,
					"numoutlets" : 0,
					"patching_rect" : [ 391.0, 151.0, 76.0, 20.0 ],
					"style" : "",
					"text" : "NO TOUCH\n"
				}

			}
, 			{
				"box" : 				{
					"id" : "obj-296",
					"maxclass" : "comment",
					"numinlets" : 1,
					"numoutlets" : 0,
					"patching_rect" : [ 332.75, 151.0, 67.0, 20.0 ],
					"style" : "",
					"text" : "TOUCH\n"
				}

			}
, 			{
				"box" : 				{
					"id" : "obj-292",
					"maxclass" : "number",
					"maximum" : 100,
					"minimum" : 0,
					"numinlets" : 1,
					"numoutlets" : 2,
					"outlettype" : [ "", "bang" ],
					"outputonclick" : 1,
					"parameter_enable" : 0,
					"patching_rect" : [ 1047.5, 606.0, 50.0, 22.0 ],
					"style" : ""
				}

			}
, 			{
				"box" : 				{
					"id" : "obj-271",
					"maxclass" : "newobj",
					"numinlets" : 1,
					"numoutlets" : 1,
					"outlettype" : [ "" ],
					"patching_rect" : [ 39.0, 861.0, 99.0, 22.0 ],
					"style" : "",
					"text" : "udpreceive 3339"
				}

			}
, 			{
				"box" : 				{
					"bgcolor" : [ 0.290196, 0.309804, 0.301961, 0.0 ],
					"id" : "obj-277",
					"maxclass" : "number",
					"numinlets" : 1,
					"numoutlets" : 2,
					"outlettype" : [ "", "bang" ],
					"parameter_enable" : 0,
					"patching_rect" : [ 474.0, 861.0, 50.0, 22.0 ],
					"style" : ""
				}

			}
, 			{
				"box" : 				{
					"id" : "obj-278",
					"maxclass" : "newobj",
					"numinlets" : 3,
					"numoutlets" : 1,
					"outlettype" : [ "" ],
					"patching_rect" : [ 216.5, 894.0, 112.0, 22.0 ],
					"style" : "",
					"text" : "clip 0 1024"
				}

			}
, 			{
				"box" : 				{
					"id" : "obj-281",
					"maxclass" : "number",
					"numinlets" : 1,
					"numoutlets" : 2,
					"outlettype" : [ "", "bang" ],
					"parameter_enable" : 0,
					"patching_rect" : [ 152.5, 893.0, 50.0, 22.0 ],
					"style" : ""
				}

			}
, 			{
				"box" : 				{
					"id" : "obj-282",
					"maxclass" : "message",
					"numinlets" : 2,
					"numoutlets" : 1,
					"outlettype" : [ "" ],
					"patching_rect" : [ 337.75, 861.0, 50.0, 22.0 ],
					"style" : "",
					"text" : "0"
				}

			}
, 			{
				"box" : 				{
					"id" : "obj-283",
					"maxclass" : "message",
					"numinlets" : 2,
					"numoutlets" : 1,
					"outlettype" : [ "" ],
					"patching_rect" : [ 396.0, 861.0, 50.0, 22.0 ],
					"style" : "",
					"text" : "1023"
				}

			}
, 			{
				"box" : 				{
					"id" : "obj-284",
					"maxclass" : "number",
					"minimum" : 0,
					"numinlets" : 1,
					"numoutlets" : 2,
					"outlettype" : [ "", "bang" ],
					"parameter_enable" : 0,
					"patching_rect" : [ 337.75, 894.0, 50.0, 22.0 ],
					"style" : ""
				}

			}
, 			{
				"box" : 				{
					"id" : "obj-285",
					"maxclass" : "number",
					"minimum" : 0,
					"numinlets" : 1,
					"numoutlets" : 2,
					"outlettype" : [ "", "bang" ],
					"parameter_enable" : 0,
					"patching_rect" : [ 396.0, 894.0, 50.0, 22.0 ],
					"style" : ""
				}

			}
, 			{
				"box" : 				{
					"bgcolor" : [ 0.231373, 0.713726, 1.0, 1.0 ],
					"candicane2" : [ 0.145098, 0.203922, 0.356863, 1.0 ],
					"candicane3" : [ 0.290196, 0.411765, 0.713726, 1.0 ],
					"candicane4" : [ 0.439216, 0.619608, 0.070588, 1.0 ],
					"candicane5" : [ 0.584314, 0.827451, 0.431373, 1.0 ],
					"candicane6" : [ 0.733333, 0.035294, 0.788235, 1.0 ],
					"candicane7" : [ 0.878431, 0.243137, 0.145098, 1.0 ],
					"candicane8" : [ 0.027451, 0.447059, 0.501961, 1.0 ],
					"contdata" : 1,
					"id" : "obj-286",
					"maxclass" : "multislider",
					"numinlets" : 1,
					"numoutlets" : 2,
					"outlettype" : [ "", "" ],
					"parameter_enable" : 0,
					"patching_rect" : [ 466.0, 861.0, 240.0, 59.0 ],
					"peakcolor" : [ 0.498039, 0.498039, 0.498039, 1.0 ],
					"setminmax" : [ 0.0, 1023.0 ],
					"setstyle" : 3,
					"slidercolor" : [ 0.066667, 0.058824, 0.776471, 1.0 ],
					"style" : "",
					"varname" : "multislider[6]"
				}

			}
, 			{
				"box" : 				{
					"id" : "obj-287",
					"maxclass" : "newobj",
					"numinlets" : 6,
					"numoutlets" : 1,
					"outlettype" : [ "" ],
					"patching_rect" : [ 216.5, 861.0, 112.0, 22.0 ],
					"style" : "",
					"text" : "scale $1 $2 0 1023"
				}

			}
, 			{
				"box" : 				{
					"id" : "obj-288",
					"maxclass" : "newobj",
					"numinlets" : 2,
					"numoutlets" : 2,
					"outlettype" : [ "", "" ],
					"patching_rect" : [ 39.0, 893.0, 105.0, 22.0 ],
					"style" : "",
					"text" : "route /vResistivity"
				}

			}
, 			{
				"box" : 				{
					"id" : "obj-253",
					"maxclass" : "newobj",
					"numinlets" : 1,
					"numoutlets" : 1,
					"outlettype" : [ "" ],
					"patching_rect" : [ 39.0, 216.0, 163.5, 22.0 ],
					"style" : "",
					"text" : "udpreceive 3334"
				}

			}
, 			{
				"box" : 				{
					"bgcolor" : [ 0.290196, 0.309804, 0.301961, 0.0 ],
					"id" : "obj-259",
					"maxclass" : "number",
					"numinlets" : 1,
					"numoutlets" : 2,
					"outlettype" : [ "", "bang" ],
					"parameter_enable" : 0,
					"patching_rect" : [ 474.0, 216.0, 50.0, 22.0 ],
					"style" : ""
				}

			}
, 			{
				"box" : 				{
					"id" : "obj-260",
					"maxclass" : "newobj",
					"numinlets" : 3,
					"numoutlets" : 1,
					"outlettype" : [ "" ],
					"patching_rect" : [ 216.5, 249.0, 112.0, 22.0 ],
					"style" : "",
					"text" : "clip 0 1024"
				}

			}
, 			{
				"box" : 				{
					"id" : "obj-263",
					"maxclass" : "number",
					"numinlets" : 1,
					"numoutlets" : 2,
					"outlettype" : [ "", "bang" ],
					"parameter_enable" : 0,
					"patching_rect" : [ 152.5, 248.0, 50.0, 22.0 ],
					"style" : ""
				}

			}
, 			{
				"box" : 				{
					"id" : "obj-264",
					"maxclass" : "message",
					"numinlets" : 2,
					"numoutlets" : 1,
					"outlettype" : [ "" ],
					"patching_rect" : [ 337.75, 216.0, 50.0, 22.0 ],
					"style" : "",
					"text" : "0"
				}

			}
, 			{
				"box" : 				{
					"id" : "obj-265",
					"maxclass" : "message",
					"numinlets" : 2,
					"numoutlets" : 1,
					"outlettype" : [ "" ],
					"patching_rect" : [ 396.0, 216.0, 50.0, 22.0 ],
					"style" : "",
					"text" : "1023"
				}

			}
, 			{
				"box" : 				{
					"id" : "obj-266",
					"maxclass" : "number",
					"minimum" : 0,
					"numinlets" : 1,
					"numoutlets" : 2,
					"outlettype" : [ "", "bang" ],
					"parameter_enable" : 0,
					"patching_rect" : [ 337.75, 249.0, 50.0, 22.0 ],
					"style" : ""
				}

			}
, 			{
				"box" : 				{
					"id" : "obj-267",
					"maxclass" : "number",
					"minimum" : 0,
					"numinlets" : 1,
					"numoutlets" : 2,
					"outlettype" : [ "", "bang" ],
					"parameter_enable" : 0,
					"patching_rect" : [ 396.0, 249.0, 50.0, 22.0 ],
					"style" : ""
				}

			}
, 			{
				"box" : 				{
					"bgcolor" : [ 0.231373, 0.713726, 1.0, 1.0 ],
					"candicane2" : [ 0.145098, 0.203922, 0.356863, 1.0 ],
					"candicane3" : [ 0.290196, 0.411765, 0.713726, 1.0 ],
					"candicane4" : [ 0.439216, 0.619608, 0.070588, 1.0 ],
					"candicane5" : [ 0.584314, 0.827451, 0.431373, 1.0 ],
					"candicane6" : [ 0.733333, 0.035294, 0.788235, 1.0 ],
					"candicane7" : [ 0.878431, 0.243137, 0.145098, 1.0 ],
					"candicane8" : [ 0.027451, 0.447059, 0.501961, 1.0 ],
					"contdata" : 1,
					"id" : "obj-268",
					"maxclass" : "multislider",
					"numinlets" : 1,
					"numoutlets" : 2,
					"outlettype" : [ "", "" ],
					"parameter_enable" : 0,
					"patching_rect" : [ 466.0, 216.0, 240.0, 59.0 ],
					"peakcolor" : [ 0.498039, 0.498039, 0.498039, 1.0 ],
					"setminmax" : [ 0.0, 1023.0 ],
					"setstyle" : 3,
					"slidercolor" : [ 0.066667, 0.058824, 0.776471, 1.0 ],
					"style" : "",
					"varname" : "multislider[2]"
				}

			}
, 			{
				"box" : 				{
					"id" : "obj-269",
					"maxclass" : "newobj",
					"numinlets" : 6,
					"numoutlets" : 1,
					"outlettype" : [ "" ],
					"patching_rect" : [ 216.5, 216.0, 112.0, 22.0 ],
					"style" : "",
					"text" : "scale $1 $2 0 1023"
				}

			}
, 			{
				"box" : 				{
					"id" : "obj-270",
					"maxclass" : "newobj",
					"numinlets" : 2,
					"numoutlets" : 2,
					"outlettype" : [ "", "" ],
					"patching_rect" : [ 39.0, 248.0, 105.0, 22.0 ],
					"style" : "",
					"text" : "route /vResistivity"
				}

			}
, 			{
				"box" : 				{
					"id" : "obj-235",
					"maxclass" : "newobj",
					"numinlets" : 1,
					"numoutlets" : 1,
					"outlettype" : [ "" ],
					"patching_rect" : [ 39.0, 342.0, 163.5, 22.0 ],
					"style" : "",
					"text" : "udpreceive 3335"
				}

			}
, 			{
				"box" : 				{
					"bgcolor" : [ 0.290196, 0.309804, 0.301961, 0.0 ],
					"id" : "obj-241",
					"maxclass" : "number",
					"numinlets" : 1,
					"numoutlets" : 2,
					"outlettype" : [ "", "bang" ],
					"parameter_enable" : 0,
					"patching_rect" : [ 474.0, 342.0, 50.0, 22.0 ],
					"style" : ""
				}

			}
, 			{
				"box" : 				{
					"id" : "obj-242",
					"maxclass" : "newobj",
					"numinlets" : 3,
					"numoutlets" : 1,
					"outlettype" : [ "" ],
					"patching_rect" : [ 216.5, 375.0, 112.0, 22.0 ],
					"style" : "",
					"text" : "clip 0 1024"
				}

			}
, 			{
				"box" : 				{
					"id" : "obj-245",
					"maxclass" : "number",
					"numinlets" : 1,
					"numoutlets" : 2,
					"outlettype" : [ "", "bang" ],
					"parameter_enable" : 0,
					"patching_rect" : [ 152.5, 374.0, 50.0, 22.0 ],
					"style" : ""
				}

			}
, 			{
				"box" : 				{
					"id" : "obj-246",
					"maxclass" : "message",
					"numinlets" : 2,
					"numoutlets" : 1,
					"outlettype" : [ "" ],
					"patching_rect" : [ 337.75, 342.0, 50.0, 22.0 ],
					"style" : "",
					"text" : "0"
				}

			}
, 			{
				"box" : 				{
					"id" : "obj-247",
					"maxclass" : "message",
					"numinlets" : 2,
					"numoutlets" : 1,
					"outlettype" : [ "" ],
					"patching_rect" : [ 396.0, 342.0, 50.0, 22.0 ],
					"style" : "",
					"text" : "1023"
				}

			}
, 			{
				"box" : 				{
					"id" : "obj-248",
					"maxclass" : "number",
					"minimum" : 0,
					"numinlets" : 1,
					"numoutlets" : 2,
					"outlettype" : [ "", "bang" ],
					"parameter_enable" : 0,
					"patching_rect" : [ 337.75, 375.0, 50.0, 22.0 ],
					"style" : ""
				}

			}
, 			{
				"box" : 				{
					"id" : "obj-249",
					"maxclass" : "number",
					"minimum" : 0,
					"numinlets" : 1,
					"numoutlets" : 2,
					"outlettype" : [ "", "bang" ],
					"parameter_enable" : 0,
					"patching_rect" : [ 396.0, 375.0, 50.0, 22.0 ],
					"style" : ""
				}

			}
, 			{
				"box" : 				{
					"bgcolor" : [ 0.231373, 0.713726, 1.0, 1.0 ],
					"candicane2" : [ 0.145098, 0.203922, 0.356863, 1.0 ],
					"candicane3" : [ 0.290196, 0.411765, 0.713726, 1.0 ],
					"candicane4" : [ 0.439216, 0.619608, 0.070588, 1.0 ],
					"candicane5" : [ 0.584314, 0.827451, 0.431373, 1.0 ],
					"candicane6" : [ 0.733333, 0.035294, 0.788235, 1.0 ],
					"candicane7" : [ 0.878431, 0.243137, 0.145098, 1.0 ],
					"candicane8" : [ 0.027451, 0.447059, 0.501961, 1.0 ],
					"contdata" : 1,
					"id" : "obj-250",
					"maxclass" : "multislider",
					"numinlets" : 1,
					"numoutlets" : 2,
					"outlettype" : [ "", "" ],
					"parameter_enable" : 0,
					"patching_rect" : [ 466.0, 342.0, 240.0, 59.0 ],
					"peakcolor" : [ 0.498039, 0.498039, 0.498039, 1.0 ],
					"setminmax" : [ 0.0, 1023.0 ],
					"setstyle" : 3,
					"slidercolor" : [ 0.066667, 0.058824, 0.776471, 1.0 ],
					"style" : "",
					"varname" : "multislider[1]"
				}

			}
, 			{
				"box" : 				{
					"id" : "obj-251",
					"maxclass" : "newobj",
					"numinlets" : 6,
					"numoutlets" : 1,
					"outlettype" : [ "" ],
					"patching_rect" : [ 216.5, 342.0, 112.0, 22.0 ],
					"style" : "",
					"text" : "scale $1 $2 0 1023"
				}

			}
, 			{
				"box" : 				{
					"id" : "obj-252",
					"maxclass" : "newobj",
					"numinlets" : 2,
					"numoutlets" : 2,
					"outlettype" : [ "", "" ],
					"patching_rect" : [ 39.0, 374.0, 105.0, 22.0 ],
					"style" : "",
					"text" : "route /vResistivity"
				}

			}
, 			{
				"box" : 				{
					"id" : "obj-217",
					"maxclass" : "newobj",
					"numinlets" : 1,
					"numoutlets" : 1,
					"outlettype" : [ "" ],
					"patching_rect" : [ 39.0, 472.0, 163.5, 22.0 ],
					"style" : "",
					"text" : "udpreceive 3336"
				}

			}
, 			{
				"box" : 				{
					"id" : "obj-218",
					"maxclass" : "message",
					"numinlets" : 2,
					"numoutlets" : 1,
					"outlettype" : [ "" ],
					"patching_rect" : [ 1055.5, 476.0, 29.5, 22.0 ],
					"style" : "",
					"text" : "0"
				}

			}
, 			{
				"box" : 				{
					"id" : "obj-219",
					"maxclass" : "button",
					"numinlets" : 1,
					"numoutlets" : 1,
					"outlettype" : [ "bang" ],
					"patching_rect" : [ 1016.0, 476.0, 24.0, 24.0 ],
					"style" : ""
				}

			}
, 			{
				"box" : 				{
					"id" : "obj-220",
					"int" : 1,
					"maxclass" : "gswitch",
					"numinlets" : 3,
					"numoutlets" : 1,
					"outlettype" : [ "" ],
					"parameter_enable" : 0,
					"patching_rect" : [ 1097.25, 476.0, 42.0, 22.0 ],
					"style" : ""
				}

			}
, 			{
				"box" : 				{
					"id" : "obj-221",
					"maxclass" : "number",
					"numinlets" : 1,
					"numoutlets" : 2,
					"outlettype" : [ "", "bang" ],
					"parameter_enable" : 0,
					"patching_rect" : [ 958.5, 476.0, 50.0, 22.0 ],
					"style" : ""
				}

			}
, 			{
				"box" : 				{
					"id" : "obj-222",
					"maxclass" : "newobj",
					"numinlets" : 6,
					"numoutlets" : 1,
					"outlettype" : [ "" ],
					"patching_rect" : [ 845.0, 476.0, 105.0, 22.0 ],
					"style" : "",
					"text" : "scale 0 1024 0 80"
				}

			}
, 			{
				"box" : 				{
					"bgcolor" : [ 0.290196, 0.309804, 0.301961, 0.0 ],
					"id" : "obj-223",
					"maxclass" : "number",
					"numinlets" : 1,
					"numoutlets" : 2,
					"outlettype" : [ "", "bang" ],
					"parameter_enable" : 0,
					"patching_rect" : [ 474.0, 472.0, 50.0, 22.0 ],
					"style" : ""
				}

			}
, 			{
				"box" : 				{
					"id" : "obj-224",
					"maxclass" : "newobj",
					"numinlets" : 3,
					"numoutlets" : 1,
					"outlettype" : [ "" ],
					"patching_rect" : [ 216.5, 505.0, 112.0, 22.0 ],
					"style" : "",
					"text" : "clip 0 1024"
				}

			}
, 			{
				"box" : 				{
					"id" : "obj-225",
					"maxclass" : "message",
					"numinlets" : 2,
					"numoutlets" : 1,
					"outlettype" : [ "" ],
					"patching_rect" : [ 845.0, 509.0, 66.0, 22.0 ],
					"style" : "",
					"text" : "/vPWM $1"
				}

			}
, 			{
				"box" : 				{
					"id" : "obj-227",
					"maxclass" : "number",
					"numinlets" : 1,
					"numoutlets" : 2,
					"outlettype" : [ "", "bang" ],
					"parameter_enable" : 0,
					"patching_rect" : [ 152.5, 504.0, 50.0, 22.0 ],
					"style" : ""
				}

			}
, 			{
				"box" : 				{
					"id" : "obj-228",
					"maxclass" : "message",
					"numinlets" : 2,
					"numoutlets" : 1,
					"outlettype" : [ "" ],
					"patching_rect" : [ 337.75, 472.0, 50.0, 22.0 ],
					"style" : "",
					"text" : "0"
				}

			}
, 			{
				"box" : 				{
					"id" : "obj-229",
					"maxclass" : "message",
					"numinlets" : 2,
					"numoutlets" : 1,
					"outlettype" : [ "" ],
					"patching_rect" : [ 396.0, 472.0, 50.0, 22.0 ],
					"style" : "",
					"text" : "1023"
				}

			}
, 			{
				"box" : 				{
					"id" : "obj-230",
					"maxclass" : "number",
					"minimum" : 0,
					"numinlets" : 1,
					"numoutlets" : 2,
					"outlettype" : [ "", "bang" ],
					"parameter_enable" : 0,
					"patching_rect" : [ 337.75, 505.0, 50.0, 22.0 ],
					"style" : ""
				}

			}
, 			{
				"box" : 				{
					"id" : "obj-231",
					"maxclass" : "number",
					"minimum" : 0,
					"numinlets" : 1,
					"numoutlets" : 2,
					"outlettype" : [ "", "bang" ],
					"parameter_enable" : 0,
					"patching_rect" : [ 396.0, 505.0, 50.0, 22.0 ],
					"style" : ""
				}

			}
, 			{
				"box" : 				{
					"bgcolor" : [ 0.231373, 0.713726, 1.0, 1.0 ],
					"candicane2" : [ 0.145098, 0.203922, 0.356863, 1.0 ],
					"candicane3" : [ 0.290196, 0.411765, 0.713726, 1.0 ],
					"candicane4" : [ 0.439216, 0.619608, 0.070588, 1.0 ],
					"candicane5" : [ 0.584314, 0.827451, 0.431373, 1.0 ],
					"candicane6" : [ 0.733333, 0.035294, 0.788235, 1.0 ],
					"candicane7" : [ 0.878431, 0.243137, 0.145098, 1.0 ],
					"candicane8" : [ 0.027451, 0.447059, 0.501961, 1.0 ],
					"contdata" : 1,
					"id" : "obj-232",
					"maxclass" : "multislider",
					"numinlets" : 1,
					"numoutlets" : 2,
					"outlettype" : [ "", "" ],
					"parameter_enable" : 0,
					"patching_rect" : [ 466.0, 472.0, 240.0, 59.0 ],
					"peakcolor" : [ 0.498039, 0.498039, 0.498039, 1.0 ],
					"setminmax" : [ 0.0, 1023.0 ],
					"setstyle" : 3,
					"slidercolor" : [ 0.066667, 0.058824, 0.776471, 1.0 ],
					"style" : "",
					"varname" : "multislider[3]"
				}

			}
, 			{
				"box" : 				{
					"id" : "obj-233",
					"maxclass" : "newobj",
					"numinlets" : 6,
					"numoutlets" : 1,
					"outlettype" : [ "" ],
					"patching_rect" : [ 216.5, 472.0, 112.0, 22.0 ],
					"style" : "",
					"text" : "scale $1 $2 0 1023"
				}

			}
, 			{
				"box" : 				{
					"id" : "obj-234",
					"maxclass" : "newobj",
					"numinlets" : 2,
					"numoutlets" : 2,
					"outlettype" : [ "", "" ],
					"patching_rect" : [ 39.0, 504.0, 105.0, 22.0 ],
					"style" : "",
					"text" : "route /vResistivity"
				}

			}
, 			{
				"box" : 				{
					"id" : "obj-199",
					"maxclass" : "newobj",
					"numinlets" : 1,
					"numoutlets" : 1,
					"outlettype" : [ "" ],
					"patching_rect" : [ 39.0, 601.0, 163.5, 22.0 ],
					"style" : "",
					"text" : "udpreceive 3337"
				}

			}
, 			{
				"box" : 				{
					"id" : "obj-201",
					"maxclass" : "button",
					"numinlets" : 1,
					"numoutlets" : 1,
					"outlettype" : [ "bang" ],
					"patching_rect" : [ 1012.25, 605.0, 24.0, 24.0 ],
					"style" : ""
				}

			}
, 			{
				"box" : 				{
					"id" : "obj-202",
					"int" : 1,
					"maxclass" : "gswitch",
					"numinlets" : 3,
					"numoutlets" : 1,
					"outlettype" : [ "" ],
					"parameter_enable" : 0,
					"patching_rect" : [ 1108.25, 605.0, 42.0, 22.0 ],
					"style" : ""
				}

			}
, 			{
				"box" : 				{
					"id" : "obj-203",
					"maxclass" : "number",
					"numinlets" : 1,
					"numoutlets" : 2,
					"outlettype" : [ "", "bang" ],
					"parameter_enable" : 0,
					"patching_rect" : [ 954.75, 605.0, 50.0, 22.0 ],
					"style" : ""
				}

			}
, 			{
				"box" : 				{
					"id" : "obj-204",
					"maxclass" : "newobj",
					"numinlets" : 6,
					"numoutlets" : 1,
					"outlettype" : [ "" ],
					"patching_rect" : [ 841.25, 605.0, 105.0, 22.0 ],
					"style" : "",
					"text" : "scale 0 1024 0 80"
				}

			}
, 			{
				"box" : 				{
					"bgcolor" : [ 0.290196, 0.309804, 0.301961, 0.0 ],
					"id" : "obj-205",
					"maxclass" : "number",
					"numinlets" : 1,
					"numoutlets" : 2,
					"outlettype" : [ "", "bang" ],
					"parameter_enable" : 0,
					"patching_rect" : [ 474.0, 601.0, 50.0, 22.0 ],
					"style" : ""
				}

			}
, 			{
				"box" : 				{
					"id" : "obj-206",
					"maxclass" : "newobj",
					"numinlets" : 3,
					"numoutlets" : 1,
					"outlettype" : [ "" ],
					"patching_rect" : [ 216.5, 634.0, 112.0, 22.0 ],
					"style" : "",
					"text" : "clip 0 1024"
				}

			}
, 			{
				"box" : 				{
					"id" : "obj-207",
					"maxclass" : "message",
					"numinlets" : 2,
					"numoutlets" : 1,
					"outlettype" : [ "" ],
					"patching_rect" : [ 841.25, 638.0, 66.0, 22.0 ],
					"style" : "",
					"text" : "/vPWM $1"
				}

			}
, 			{
				"box" : 				{
					"id" : "obj-208",
					"maxclass" : "newobj",
					"numinlets" : 1,
					"numoutlets" : 0,
					"patching_rect" : [ 914.25, 638.0, 222.0, 22.0 ],
					"style" : "",
					"text" : "udpsend 192.168.1.141 3333"
				}

			}
, 			{
				"box" : 				{
					"id" : "obj-209",
					"maxclass" : "number",
					"numinlets" : 1,
					"numoutlets" : 2,
					"outlettype" : [ "", "bang" ],
					"parameter_enable" : 0,
					"patching_rect" : [ 152.5, 633.0, 50.0, 22.0 ],
					"style" : ""
				}

			}
, 			{
				"box" : 				{
					"bgcolor" : [ 0.231373, 0.713726, 1.0, 1.0 ],
					"candicane2" : [ 0.145098, 0.203922, 0.356863, 1.0 ],
					"candicane3" : [ 0.290196, 0.411765, 0.713726, 1.0 ],
					"candicane4" : [ 0.439216, 0.619608, 0.070588, 1.0 ],
					"candicane5" : [ 0.584314, 0.827451, 0.431373, 1.0 ],
					"candicane6" : [ 0.733333, 0.035294, 0.788235, 1.0 ],
					"candicane7" : [ 0.878431, 0.243137, 0.145098, 1.0 ],
					"candicane8" : [ 0.027451, 0.447059, 0.501961, 1.0 ],
					"contdata" : 1,
					"id" : "obj-214",
					"maxclass" : "multislider",
					"numinlets" : 1,
					"numoutlets" : 2,
					"outlettype" : [ "", "" ],
					"parameter_enable" : 0,
					"patching_rect" : [ 466.0, 601.0, 240.0, 59.0 ],
					"peakcolor" : [ 0.498039, 0.498039, 0.498039, 1.0 ],
					"setminmax" : [ 0.0, 1023.0 ],
					"setstyle" : 3,
					"slidercolor" : [ 0.066667, 0.058824, 0.776471, 1.0 ],
					"style" : "",
					"varname" : "multislider[4]"
				}

			}
, 			{
				"box" : 				{
					"id" : "obj-215",
					"maxclass" : "newobj",
					"numinlets" : 6,
					"numoutlets" : 1,
					"outlettype" : [ "" ],
					"patching_rect" : [ 216.5, 601.0, 112.0, 22.0 ],
					"style" : "",
					"text" : "scale $1 $2 0 1023"
				}

			}
, 			{
				"box" : 				{
					"id" : "obj-216",
					"maxclass" : "newobj",
					"numinlets" : 2,
					"numoutlets" : 2,
					"outlettype" : [ "", "" ],
					"patching_rect" : [ 39.0, 633.0, 105.0, 22.0 ],
					"style" : "",
					"text" : "route /vResistivity"
				}

			}
, 			{
				"box" : 				{
					"id" : "obj-198",
					"maxclass" : "newobj",
					"numinlets" : 1,
					"numoutlets" : 1,
					"outlettype" : [ "" ],
					"patching_rect" : [ 39.0, 732.0, 163.5, 22.0 ],
					"style" : "",
					"text" : "udpreceive 3338"
				}

			}
, 			{
				"box" : 				{
					"id" : "obj-196",
					"maxclass" : "message",
					"numinlets" : 2,
					"numoutlets" : 1,
					"outlettype" : [ "" ],
					"patching_rect" : [ 1051.75, 732.0, 29.5, 22.0 ],
					"style" : "",
					"text" : "0"
				}

			}
, 			{
				"box" : 				{
					"id" : "obj-193",
					"maxclass" : "button",
					"numinlets" : 1,
					"numoutlets" : 1,
					"outlettype" : [ "bang" ],
					"patching_rect" : [ 1012.25, 732.0, 24.0, 24.0 ],
					"style" : ""
				}

			}
, 			{
				"box" : 				{
					"id" : "obj-192",
					"int" : 1,
					"maxclass" : "gswitch",
					"numinlets" : 3,
					"numoutlets" : 1,
					"outlettype" : [ "" ],
					"parameter_enable" : 0,
					"patching_rect" : [ 1094.25, 732.0, 42.0, 22.0 ],
					"style" : ""
				}

			}
, 			{
				"box" : 				{
					"id" : "obj-167",
					"maxclass" : "comment",
					"numinlets" : 1,
					"numoutlets" : 0,
					"patching_rect" : [ 39.0, 823.0, 180.0, 20.0 ],
					"style" : "",
					"text" : "MODULE 6 : JAMBE DROITE\n"
				}

			}
, 			{
				"box" : 				{
					"id" : "obj-149",
					"maxclass" : "comment",
					"numinlets" : 1,
					"numoutlets" : 0,
					"patching_rect" : [ 39.0, 691.0, 173.0, 20.0 ],
					"style" : "",
					"text" : "MODULE 5 : BRAS DROIT"
				}

			}
, 			{
				"box" : 				{
					"id" : "obj-152",
					"maxclass" : "number",
					"numinlets" : 1,
					"numoutlets" : 2,
					"outlettype" : [ "", "bang" ],
					"parameter_enable" : 0,
					"patching_rect" : [ 954.75, 732.0, 50.0, 22.0 ],
					"style" : ""
				}

			}
, 			{
				"box" : 				{
					"id" : "obj-153",
					"maxclass" : "newobj",
					"numinlets" : 6,
					"numoutlets" : 1,
					"outlettype" : [ "" ],
					"patching_rect" : [ 841.25, 732.0, 112.0, 22.0 ],
					"style" : "",
					"text" : "scale 0 1024 0 100"
				}

			}
, 			{
				"box" : 				{
					"bgcolor" : [ 0.290196, 0.309804, 0.301961, 0.0 ],
					"id" : "obj-154",
					"maxclass" : "number",
					"numinlets" : 1,
					"numoutlets" : 2,
					"outlettype" : [ "", "bang" ],
					"parameter_enable" : 0,
					"patching_rect" : [ 474.0, 732.0, 50.0, 22.0 ],
					"style" : ""
				}

			}
, 			{
				"box" : 				{
					"id" : "obj-155",
					"maxclass" : "newobj",
					"numinlets" : 3,
					"numoutlets" : 1,
					"outlettype" : [ "" ],
					"patching_rect" : [ 216.5, 765.0, 112.0, 22.0 ],
					"style" : "",
					"text" : "clip 0 1024"
				}

			}
, 			{
				"box" : 				{
					"id" : "obj-156",
					"maxclass" : "message",
					"numinlets" : 2,
					"numoutlets" : 1,
					"outlettype" : [ "" ],
					"patching_rect" : [ 841.25, 765.0, 66.0, 22.0 ],
					"style" : "",
					"text" : "/vPWM $1"
				}

			}
, 			{
				"box" : 				{
					"id" : "obj-157",
					"maxclass" : "newobj",
					"numinlets" : 1,
					"numoutlets" : 0,
					"patching_rect" : [ 914.25, 765.0, 160.0, 22.0 ],
					"style" : "",
					"text" : "udpsend 192.168.1.33 3333"
				}

			}
, 			{
				"box" : 				{
					"id" : "obj-158",
					"maxclass" : "number",
					"numinlets" : 1,
					"numoutlets" : 2,
					"outlettype" : [ "", "bang" ],
					"parameter_enable" : 0,
					"patching_rect" : [ 152.5, 764.0, 50.0, 22.0 ],
					"style" : ""
				}

			}
, 			{
				"box" : 				{
					"id" : "obj-159",
					"maxclass" : "message",
					"numinlets" : 2,
					"numoutlets" : 1,
					"outlettype" : [ "" ],
					"patching_rect" : [ 337.75, 732.0, 50.0, 22.0 ],
					"style" : "",
					"text" : "0"
				}

			}
, 			{
				"box" : 				{
					"id" : "obj-160",
					"maxclass" : "message",
					"numinlets" : 2,
					"numoutlets" : 1,
					"outlettype" : [ "" ],
					"patching_rect" : [ 396.0, 732.0, 50.0, 22.0 ],
					"style" : "",
					"text" : "1023"
				}

			}
, 			{
				"box" : 				{
					"id" : "obj-161",
					"maxclass" : "number",
					"minimum" : 0,
					"numinlets" : 1,
					"numoutlets" : 2,
					"outlettype" : [ "", "bang" ],
					"parameter_enable" : 0,
					"patching_rect" : [ 337.75, 765.0, 50.0, 22.0 ],
					"style" : ""
				}

			}
, 			{
				"box" : 				{
					"id" : "obj-162",
					"maxclass" : "number",
					"minimum" : 0,
					"numinlets" : 1,
					"numoutlets" : 2,
					"outlettype" : [ "", "bang" ],
					"parameter_enable" : 0,
					"patching_rect" : [ 396.0, 765.0, 50.0, 22.0 ],
					"style" : ""
				}

			}
, 			{
				"box" : 				{
					"bgcolor" : [ 0.231373, 0.713726, 1.0, 1.0 ],
					"candicane2" : [ 0.145098, 0.203922, 0.356863, 1.0 ],
					"candicane3" : [ 0.290196, 0.411765, 0.713726, 1.0 ],
					"candicane4" : [ 0.439216, 0.619608, 0.070588, 1.0 ],
					"candicane5" : [ 0.584314, 0.827451, 0.431373, 1.0 ],
					"candicane6" : [ 0.733333, 0.035294, 0.788235, 1.0 ],
					"candicane7" : [ 0.878431, 0.243137, 0.145098, 1.0 ],
					"candicane8" : [ 0.027451, 0.447059, 0.501961, 1.0 ],
					"contdata" : 1,
					"id" : "obj-163",
					"maxclass" : "multislider",
					"numinlets" : 1,
					"numoutlets" : 2,
					"outlettype" : [ "", "" ],
					"parameter_enable" : 0,
					"patching_rect" : [ 466.0, 732.0, 240.0, 59.0 ],
					"peakcolor" : [ 0.498039, 0.498039, 0.498039, 1.0 ],
					"setminmax" : [ 0.0, 1023.0 ],
					"setstyle" : 3,
					"slidercolor" : [ 0.066667, 0.058824, 0.776471, 1.0 ],
					"style" : "",
					"varname" : "multislider[5]"
				}

			}
, 			{
				"box" : 				{
					"id" : "obj-164",
					"maxclass" : "newobj",
					"numinlets" : 6,
					"numoutlets" : 1,
					"outlettype" : [ "" ],
					"patching_rect" : [ 216.5, 732.0, 112.0, 22.0 ],
					"style" : "",
					"text" : "scale $1 $2 0 1023"
				}

			}
, 			{
				"box" : 				{
					"id" : "obj-165",
					"maxclass" : "newobj",
					"numinlets" : 2,
					"numoutlets" : 2,
					"outlettype" : [ "", "" ],
					"patching_rect" : [ 39.0, 764.0, 105.0, 22.0 ],
					"style" : "",
					"text" : "route /vResistivity"
				}

			}
, 			{
				"box" : 				{
					"id" : "obj-131",
					"maxclass" : "comment",
					"numinlets" : 1,
					"numoutlets" : 0,
					"patching_rect" : [ 39.0, 555.0, 180.0, 20.0 ],
					"style" : "",
					"text" : "MODULE 4 : BRAS GAUCHE"
				}

			}
, 			{
				"box" : 				{
					"id" : "obj-113",
					"maxclass" : "comment",
					"numinlets" : 1,
					"numoutlets" : 0,
					"patching_rect" : [ 39.0, 424.0, 150.0, 20.0 ],
					"style" : "",
					"text" : "MODULE 3 : COEUR"
				}

			}
, 			{
				"box" : 				{
					"id" : "obj-95",
					"maxclass" : "comment",
					"numinlets" : 1,
					"numoutlets" : 0,
					"patching_rect" : [ 39.0, 173.0, 150.0, 20.0 ],
					"style" : "",
					"text" : "MODULE 1"
				}

			}
, 			{
				"box" : 				{
					"id" : "obj-94",
					"maxclass" : "comment",
					"numinlets" : 1,
					"numoutlets" : 0,
					"patching_rect" : [ 39.0, 301.0, 180.0, 20.0 ],
					"style" : "",
					"text" : "MODULE 2 : JAMBE GAUCHE"
				}

			}
, 			{
				"box" : 				{
					"id" : "obj-87",
					"maxclass" : "comment",
					"numinlets" : 1,
					"numoutlets" : 0,
					"patching_rect" : [ 49.0, 19.0, 53.0, 20.0 ],
					"style" : "",
					"text" : "RESET"
				}

			}
, 			{
				"box" : 				{
					"id" : "obj-83",
					"maxclass" : "message",
					"numinlets" : 2,
					"numoutlets" : 1,
					"outlettype" : [ "" ],
					"patching_rect" : [ 82.0, 52.0, 31.0, 22.0 ],
					"style" : "",
					"text" : "100"
				}

			}
, 			{
				"box" : 				{
					"id" : "obj-80",
					"maxclass" : "message",
					"numinlets" : 2,
					"numoutlets" : 1,
					"outlettype" : [ "" ],
					"patching_rect" : [ 49.0, 52.0, 29.5, 22.0 ],
					"style" : "",
					"text" : "0"
				}

			}
, 			{
				"box" : 				{
					"id" : "obj-78",
					"maxclass" : "message",
					"numinlets" : 2,
					"numoutlets" : 1,
					"outlettype" : [ "" ],
					"patching_rect" : [ 49.0, 84.0, 66.0, 22.0 ],
					"style" : "",
					"text" : "/vPWM $1"
				}

			}
, 			{
				"box" : 				{
					"id" : "obj-73",
					"maxclass" : "newobj",
					"numinlets" : 1,
					"numoutlets" : 0,
					"patching_rect" : [ 49.0, 117.0, 160.0, 22.0 ],
					"style" : "",
					"text" : "udpsend 192.168.1.33 3333"
				}

			}
, 			{
				"box" : 				{
					"id" : "obj-63",
					"linecount" : 6,
					"maxclass" : "comment",
					"numinlets" : 1,
					"numoutlets" : 0,
					"patching_rect" : [ 269.0, 52.0, 150.0, 87.0 ],
					"style" : "",
					"text" : "3334 132\n3335 53\n3336 129\n3337 141\n3338 132\n3339 199"
				}

			}
, 			{
				"box" : 				{
					"id" : "obj-21",
					"linecount" : 5,
					"maxclass" : "comment",
					"numinlets" : 1,
					"numoutlets" : 0,
					"patching_rect" : [ 430.0, 58.5, 150.0, 74.0 ],
					"style" : "",
					"text" : "bras gauche 129\njambe droite 132\npoitrine 33\nbras droit 53\njambe gauche 141\n"
				}

			}
 ],
		"lines" : [ 			{
				"patchline" : 				{
					"destination" : [ "obj-192", 2 ],
					"midpoints" : [ 964.25, 756.0, 1008.0, 756.0, 1008.0, 717.0, 1126.75, 717.0 ],
					"source" : [ "obj-152", 0 ]
				}

			}
, 			{
				"patchline" : 				{
					"destination" : [ "obj-152", 0 ],
					"midpoints" : [ 850.75, 756.0, 828.0, 756.0, 828.0, 717.0, 964.25, 717.0 ],
					"source" : [ "obj-153", 0 ]
				}

			}
, 			{
				"patchline" : 				{
					"destination" : [ "obj-154", 0 ],
					"midpoints" : [ 226.0, 798.0, 459.0, 798.0, 459.0, 726.0, 483.5, 726.0 ],
					"order" : 1,
					"source" : [ "obj-155", 0 ]
				}

			}
, 			{
				"patchline" : 				{
					"destination" : [ "obj-163", 0 ],
					"midpoints" : [ 226.0, 798.0, 462.0, 798.0, 462.0, 729.0, 475.5, 729.0 ],
					"order" : 2,
					"source" : [ "obj-155", 0 ]
				}

			}
, 			{
				"patchline" : 				{
					"destination" : [ "obj-342", 1 ],
					"midpoints" : [ 226.0, 801.0, 717.0, 801.0, 717.0, 759.0, 763.25, 759.0 ],
					"order" : 0,
					"source" : [ "obj-155", 0 ]
				}

			}
, 			{
				"patchline" : 				{
					"destination" : [ "obj-157", 0 ],
					"midpoints" : [ 850.75, 798.0, 909.0, 798.0, 909.0, 762.0, 923.75, 762.0 ],
					"source" : [ "obj-156", 0 ]
				}

			}
, 			{
				"patchline" : 				{
					"destination" : [ "obj-161", 0 ],
					"midpoints" : [ 347.25, 756.0, 347.25, 756.0 ],
					"source" : [ "obj-159", 0 ]
				}

			}
, 			{
				"patchline" : 				{
					"destination" : [ "obj-162", 0 ],
					"midpoints" : [ 405.5, 756.0, 405.5, 756.0 ],
					"source" : [ "obj-160", 0 ]
				}

			}
, 			{
				"patchline" : 				{
					"destination" : [ "obj-164", 2 ],
					"midpoints" : [ 347.25, 789.0, 330.0, 789.0, 330.0, 717.0, 263.200012, 717.0 ],
					"source" : [ "obj-161", 0 ]
				}

			}
, 			{
				"patchline" : 				{
					"destination" : [ "obj-164", 1 ],
					"midpoints" : [ 405.5, 789.0, 387.0, 789.0, 387.0, 717.0, 244.600006, 717.0 ],
					"source" : [ "obj-162", 0 ]
				}

			}
, 			{
				"patchline" : 				{
					"destination" : [ "obj-155", 0 ],
					"midpoints" : [ 226.0, 756.0, 226.0, 756.0 ],
					"source" : [ "obj-164", 0 ]
				}

			}
, 			{
				"patchline" : 				{
					"destination" : [ "obj-158", 0 ],
					"midpoints" : [ 48.5, 798.0, 147.0, 798.0, 147.0, 759.0, 162.0, 759.0 ],
					"order" : 1,
					"source" : [ "obj-165", 0 ]
				}

			}
, 			{
				"patchline" : 				{
					"destination" : [ "obj-164", 0 ],
					"midpoints" : [ 48.5, 798.0, 213.0, 798.0, 213.0, 729.0, 226.0, 729.0 ],
					"order" : 0,
					"source" : [ "obj-165", 0 ]
				}

			}
, 			{
				"patchline" : 				{
					"destination" : [ "obj-156", 0 ],
					"midpoints" : [ 1103.75, 756.0, 1080.0, 756.0, 1080.0, 717.0, 828.0, 717.0, 828.0, 759.0, 850.75, 759.0 ],
					"source" : [ "obj-192", 0 ]
				}

			}
, 			{
				"patchline" : 				{
					"destination" : [ "obj-192", 0 ],
					"midpoints" : [ 1021.75, 759.0, 1047.0, 759.0, 1047.0, 717.0, 1103.75, 717.0 ],
					"order" : 0,
					"source" : [ "obj-193", 0 ]
				}

			}
, 			{
				"patchline" : 				{
					"destination" : [ "obj-196", 0 ],
					"midpoints" : [ 1021.75, 759.0, 1047.0, 759.0, 1047.0, 729.0, 1061.25, 729.0 ],
					"order" : 1,
					"source" : [ "obj-193", 0 ]
				}

			}
, 			{
				"patchline" : 				{
					"destination" : [ "obj-192", 1 ],
					"midpoints" : [ 1061.25, 756.0, 1089.0, 756.0, 1089.0, 729.0, 1115.25, 729.0 ],
					"source" : [ "obj-196", 0 ]
				}

			}
, 			{
				"patchline" : 				{
					"destination" : [ "obj-165", 0 ],
					"midpoints" : [ 48.5, 756.0, 48.5, 756.0 ],
					"source" : [ "obj-198", 0 ]
				}

			}
, 			{
				"patchline" : 				{
					"destination" : [ "obj-216", 0 ],
					"midpoints" : [ 48.5, 624.0, 48.5, 624.0 ],
					"source" : [ "obj-199", 0 ]
				}

			}
, 			{
				"patchline" : 				{
					"destination" : [ "obj-202", 0 ],
					"midpoints" : [ 1021.75, 630.0, 1044.0, 630.0, 1044.0, 591.0, 1117.75, 591.0 ],
					"source" : [ "obj-201", 0 ]
				}

			}
, 			{
				"patchline" : 				{
					"destination" : [ "obj-207", 0 ],
					"midpoints" : [ 1117.75, 630.0, 1098.0, 630.0, 1098.0, 637.0, 828.0, 637.0, 828.0, 649.0, 850.75, 649.0 ],
					"source" : [ "obj-202", 0 ]
				}

			}
, 			{
				"patchline" : 				{
					"destination" : [ "obj-202", 2 ],
					"midpoints" : [ 964.25, 630.0, 1008.0, 630.0, 1008.0, 591.0, 1140.75, 591.0 ],
					"source" : [ "obj-203", 0 ]
				}

			}
, 			{
				"patchline" : 				{
					"destination" : [ "obj-203", 0 ],
					"midpoints" : [ 850.75, 630.0, 837.0, 630.0, 837.0, 591.0, 964.25, 591.0 ],
					"source" : [ "obj-204", 0 ]
				}

			}
, 			{
				"patchline" : 				{
					"destination" : [ "obj-205", 0 ],
					"midpoints" : [ 226.0, 666.0, 459.0, 666.0, 459.0, 597.0, 483.5, 597.0 ],
					"order" : 1,
					"source" : [ "obj-206", 0 ]
				}

			}
, 			{
				"patchline" : 				{
					"destination" : [ "obj-214", 0 ],
					"midpoints" : [ 226.0, 666.0, 462.0, 666.0, 462.0, 597.0, 475.5, 597.0 ],
					"order" : 2,
					"source" : [ "obj-206", 0 ]
				}

			}
, 			{
				"patchline" : 				{
					"destination" : [ "obj-339", 1 ],
					"midpoints" : [ 226.0, 672.0, 717.0, 672.0, 717.0, 630.0, 763.25, 630.0 ],
					"order" : 0,
					"source" : [ "obj-206", 0 ]
				}

			}
, 			{
				"patchline" : 				{
					"destination" : [ "obj-208", 0 ],
					"midpoints" : [ 850.75, 672.0, 909.0, 672.0, 909.0, 633.0, 923.75, 633.0 ],
					"source" : [ "obj-207", 0 ]
				}

			}
, 			{
				"patchline" : 				{
					"destination" : [ "obj-206", 0 ],
					"midpoints" : [ 226.0, 624.0, 226.0, 624.0 ],
					"source" : [ "obj-215", 0 ]
				}

			}
, 			{
				"patchline" : 				{
					"destination" : [ "obj-209", 0 ],
					"midpoints" : [ 48.5, 666.0, 147.0, 666.0, 147.0, 627.0, 162.0, 627.0 ],
					"order" : 1,
					"source" : [ "obj-216", 0 ]
				}

			}
, 			{
				"patchline" : 				{
					"destination" : [ "obj-215", 0 ],
					"midpoints" : [ 48.5, 657.0, 24.0, 657.0, 24.0, 588.0, 226.0, 588.0 ],
					"order" : 0,
					"source" : [ "obj-216", 0 ]
				}

			}
, 			{
				"patchline" : 				{
					"destination" : [ "obj-234", 0 ],
					"midpoints" : [ 48.5, 495.0, 48.5, 495.0 ],
					"source" : [ "obj-217", 0 ]
				}

			}
, 			{
				"patchline" : 				{
					"destination" : [ "obj-220", 1 ],
					"midpoints" : [ 1065.0, 501.0, 1092.0, 501.0, 1092.0, 471.0, 1118.25, 471.0 ],
					"source" : [ "obj-218", 0 ]
				}

			}
, 			{
				"patchline" : 				{
					"destination" : [ "obj-218", 0 ],
					"midpoints" : [ 1025.5, 501.0, 1050.75, 501.0, 1050.75, 471.0, 1065.0, 471.0 ],
					"order" : 1,
					"source" : [ "obj-219", 0 ]
				}

			}
, 			{
				"patchline" : 				{
					"destination" : [ "obj-220", 0 ],
					"midpoints" : [ 1025.5, 501.0, 1050.0, 501.0, 1050.0, 462.0, 1106.75, 462.0 ],
					"order" : 0,
					"source" : [ "obj-219", 0 ]
				}

			}
, 			{
				"patchline" : 				{
					"destination" : [ "obj-225", 0 ],
					"midpoints" : [ 1106.75, 501.0, 1083.0, 501.0, 1083.0, 506.0, 831.0, 506.0, 831.0, 504.0, 854.5, 504.0 ],
					"source" : [ "obj-220", 0 ]
				}

			}
, 			{
				"patchline" : 				{
					"destination" : [ "obj-220", 2 ],
					"midpoints" : [ 968.0, 501.0, 1011.0, 501.0, 1011.0, 462.0, 1129.75, 462.0 ],
					"source" : [ "obj-221", 0 ]
				}

			}
, 			{
				"patchline" : 				{
					"destination" : [ "obj-221", 0 ],
					"midpoints" : [ 854.5, 501.0, 831.75, 501.0, 831.75, 462.0, 968.0, 462.0 ],
					"source" : [ "obj-222", 0 ]
				}

			}
, 			{
				"patchline" : 				{
					"destination" : [ "obj-223", 0 ],
					"midpoints" : [ 226.0, 537.0, 459.0, 537.0, 459.0, 468.0, 483.5, 468.0 ],
					"order" : 1,
					"source" : [ "obj-224", 0 ]
				}

			}
, 			{
				"patchline" : 				{
					"destination" : [ "obj-232", 0 ],
					"midpoints" : [ 226.0, 537.0, 462.0, 537.0, 462.0, 468.0, 475.5, 468.0 ],
					"order" : 2,
					"source" : [ "obj-224", 0 ]
				}

			}
, 			{
				"patchline" : 				{
					"destination" : [ "obj-330", 1 ],
					"midpoints" : [ 226.0, 537.0, 462.0, 537.0, 462.0, 459.0, 717.0, 459.0, 717.0, 504.0, 763.25, 504.0 ],
					"order" : 0,
					"source" : [ "obj-224", 0 ]
				}

			}
, 			{
				"patchline" : 				{
					"destination" : [ "obj-321", 0 ],
					"source" : [ "obj-225", 0 ]
				}

			}
, 			{
				"patchline" : 				{
					"destination" : [ "obj-230", 0 ],
					"midpoints" : [ 347.25, 495.0, 347.25, 495.0 ],
					"source" : [ "obj-228", 0 ]
				}

			}
, 			{
				"patchline" : 				{
					"destination" : [ "obj-231", 0 ],
					"midpoints" : [ 405.5, 495.0, 405.5, 495.0 ],
					"source" : [ "obj-229", 0 ]
				}

			}
, 			{
				"patchline" : 				{
					"destination" : [ "obj-233", 2 ],
					"midpoints" : [ 347.25, 528.0, 330.0, 528.0, 330.0, 459.0, 263.200012, 459.0 ],
					"source" : [ "obj-230", 0 ]
				}

			}
, 			{
				"patchline" : 				{
					"destination" : [ "obj-233", 1 ],
					"midpoints" : [ 405.5, 528.0, 387.0, 528.0, 387.0, 459.0, 244.600006, 459.0 ],
					"source" : [ "obj-231", 0 ]
				}

			}
, 			{
				"patchline" : 				{
					"destination" : [ "obj-224", 0 ],
					"midpoints" : [ 226.0, 495.0, 226.0, 495.0 ],
					"source" : [ "obj-233", 0 ]
				}

			}
, 			{
				"patchline" : 				{
					"destination" : [ "obj-227", 0 ],
					"midpoints" : [ 48.5, 537.0, 147.0, 537.0, 147.0, 498.0, 162.0, 498.0 ],
					"order" : 1,
					"source" : [ "obj-234", 0 ]
				}

			}
, 			{
				"patchline" : 				{
					"destination" : [ "obj-233", 0 ],
					"midpoints" : [ 48.5, 528.0, 24.0, 528.0, 24.0, 459.0, 226.0, 459.0 ],
					"order" : 0,
					"source" : [ "obj-234", 0 ]
				}

			}
, 			{
				"patchline" : 				{
					"destination" : [ "obj-252", 0 ],
					"midpoints" : [ 48.5, 366.0, 48.5, 366.0 ],
					"source" : [ "obj-235", 0 ]
				}

			}
, 			{
				"patchline" : 				{
					"destination" : [ "obj-241", 0 ],
					"midpoints" : [ 226.0, 408.0, 459.0, 408.0, 459.0, 336.0, 483.5, 336.0 ],
					"order" : 1,
					"source" : [ "obj-242", 0 ]
				}

			}
, 			{
				"patchline" : 				{
					"destination" : [ "obj-250", 0 ],
					"midpoints" : [ 226.0, 408.0, 462.0, 408.0, 462.0, 339.0, 475.5, 339.0 ],
					"order" : 2,
					"source" : [ "obj-242", 0 ]
				}

			}
, 			{
				"patchline" : 				{
					"destination" : [ "obj-35", 1 ],
					"order" : 0,
					"source" : [ "obj-242", 0 ]
				}

			}
, 			{
				"patchline" : 				{
					"destination" : [ "obj-248", 0 ],
					"midpoints" : [ 347.25, 366.0, 347.25, 366.0 ],
					"source" : [ "obj-246", 0 ]
				}

			}
, 			{
				"patchline" : 				{
					"destination" : [ "obj-249", 0 ],
					"midpoints" : [ 405.5, 366.0, 405.5, 366.0 ],
					"source" : [ "obj-247", 0 ]
				}

			}
, 			{
				"patchline" : 				{
					"destination" : [ "obj-251", 2 ],
					"midpoints" : [ 347.25, 399.0, 330.0, 399.0, 330.0, 327.0, 263.200012, 327.0 ],
					"source" : [ "obj-248", 0 ]
				}

			}
, 			{
				"patchline" : 				{
					"destination" : [ "obj-251", 1 ],
					"midpoints" : [ 405.5, 399.0, 387.0, 399.0, 387.0, 327.0, 244.600006, 327.0 ],
					"source" : [ "obj-249", 0 ]
				}

			}
, 			{
				"patchline" : 				{
					"destination" : [ "obj-242", 0 ],
					"midpoints" : [ 226.0, 366.0, 226.0, 366.0 ],
					"source" : [ "obj-251", 0 ]
				}

			}
, 			{
				"patchline" : 				{
					"destination" : [ "obj-245", 0 ],
					"midpoints" : [ 48.5, 408.0, 147.0, 408.0, 147.0, 369.0, 162.0, 369.0 ],
					"order" : 1,
					"source" : [ "obj-252", 0 ]
				}

			}
, 			{
				"patchline" : 				{
					"destination" : [ "obj-251", 0 ],
					"midpoints" : [ 48.5, 408.0, 213.0, 408.0, 213.0, 339.0, 226.0, 339.0 ],
					"order" : 0,
					"source" : [ "obj-252", 0 ]
				}

			}
, 			{
				"patchline" : 				{
					"destination" : [ "obj-270", 0 ],
					"midpoints" : [ 48.5, 240.0, 48.5, 240.0 ],
					"source" : [ "obj-253", 0 ]
				}

			}
, 			{
				"patchline" : 				{
					"destination" : [ "obj-259", 0 ],
					"midpoints" : [ 226.0, 282.0, 459.0, 282.0, 459.0, 210.0, 483.5, 210.0 ],
					"order" : 0,
					"source" : [ "obj-260", 0 ]
				}

			}
, 			{
				"patchline" : 				{
					"destination" : [ "obj-268", 0 ],
					"midpoints" : [ 226.0, 282.0, 462.0, 282.0, 462.0, 213.0, 475.5, 213.0 ],
					"order" : 1,
					"source" : [ "obj-260", 0 ]
				}

			}
, 			{
				"patchline" : 				{
					"destination" : [ "obj-266", 0 ],
					"midpoints" : [ 347.25, 240.0, 347.25, 240.0 ],
					"source" : [ "obj-264", 0 ]
				}

			}
, 			{
				"patchline" : 				{
					"destination" : [ "obj-267", 0 ],
					"midpoints" : [ 405.5, 240.0, 405.5, 240.0 ],
					"source" : [ "obj-265", 0 ]
				}

			}
, 			{
				"patchline" : 				{
					"destination" : [ "obj-269", 2 ],
					"midpoints" : [ 347.25, 273.0, 330.0, 273.0, 330.0, 201.0, 263.200012, 201.0 ],
					"source" : [ "obj-266", 0 ]
				}

			}
, 			{
				"patchline" : 				{
					"destination" : [ "obj-269", 1 ],
					"midpoints" : [ 405.5, 273.0, 387.0, 273.0, 387.0, 201.0, 244.600006, 201.0 ],
					"source" : [ "obj-267", 0 ]
				}

			}
, 			{
				"patchline" : 				{
					"destination" : [ "obj-260", 0 ],
					"midpoints" : [ 226.0, 240.0, 226.0, 240.0 ],
					"source" : [ "obj-269", 0 ]
				}

			}
, 			{
				"patchline" : 				{
					"destination" : [ "obj-263", 0 ],
					"midpoints" : [ 48.5, 282.0, 147.0, 282.0, 147.0, 243.0, 162.0, 243.0 ],
					"order" : 1,
					"source" : [ "obj-270", 0 ]
				}

			}
, 			{
				"patchline" : 				{
					"destination" : [ "obj-269", 0 ],
					"midpoints" : [ 48.5, 282.0, 213.0, 282.0, 213.0, 213.0, 226.0, 213.0 ],
					"order" : 0,
					"source" : [ "obj-270", 0 ]
				}

			}
, 			{
				"patchline" : 				{
					"destination" : [ "obj-288", 0 ],
					"midpoints" : [ 48.5, 885.0, 48.5, 885.0 ],
					"source" : [ "obj-271", 0 ]
				}

			}
, 			{
				"patchline" : 				{
					"destination" : [ "obj-277", 0 ],
					"midpoints" : [ 226.0, 927.0, 459.0, 927.0, 459.0, 858.0, 483.5, 858.0 ],
					"order" : 1,
					"source" : [ "obj-278", 0 ]
				}

			}
, 			{
				"patchline" : 				{
					"destination" : [ "obj-286", 0 ],
					"midpoints" : [ 226.0, 927.0, 459.0, 927.0, 459.0, 858.0, 475.5, 858.0 ],
					"order" : 2,
					"source" : [ "obj-278", 0 ]
				}

			}
, 			{
				"patchline" : 				{
					"destination" : [ "obj-333", 1 ],
					"midpoints" : [ 226.0, 933.0, 777.0, 933.0, 777.0, 891.0, 768.25, 891.0 ],
					"order" : 0,
					"source" : [ "obj-278", 0 ]
				}

			}
, 			{
				"patchline" : 				{
					"destination" : [ "obj-284", 0 ],
					"midpoints" : [ 347.25, 885.0, 347.25, 885.0 ],
					"source" : [ "obj-282", 0 ]
				}

			}
, 			{
				"patchline" : 				{
					"destination" : [ "obj-285", 0 ],
					"midpoints" : [ 405.5, 885.0, 405.5, 885.0 ],
					"source" : [ "obj-283", 0 ]
				}

			}
, 			{
				"patchline" : 				{
					"destination" : [ "obj-287", 2 ],
					"midpoints" : [ 347.25, 918.0, 330.0, 918.0, 330.0, 846.0, 263.200012, 846.0 ],
					"source" : [ "obj-284", 0 ]
				}

			}
, 			{
				"patchline" : 				{
					"destination" : [ "obj-287", 1 ],
					"midpoints" : [ 405.5, 927.0, 330.0, 927.0, 330.0, 846.0, 244.600006, 846.0 ],
					"source" : [ "obj-285", 0 ]
				}

			}
, 			{
				"patchline" : 				{
					"destination" : [ "obj-278", 0 ],
					"midpoints" : [ 226.0, 885.0, 226.0, 885.0 ],
					"source" : [ "obj-287", 0 ]
				}

			}
, 			{
				"patchline" : 				{
					"destination" : [ "obj-281", 0 ],
					"midpoints" : [ 48.5, 927.0, 147.0, 927.0, 147.0, 888.0, 162.0, 888.0 ],
					"order" : 1,
					"source" : [ "obj-288", 0 ]
				}

			}
, 			{
				"patchline" : 				{
					"destination" : [ "obj-287", 0 ],
					"midpoints" : [ 48.5, 927.0, 213.0, 927.0, 213.0, 858.0, 226.0, 858.0 ],
					"order" : 0,
					"source" : [ "obj-288", 0 ]
				}

			}
, 			{
				"patchline" : 				{
					"destination" : [ "obj-202", 1 ],
					"midpoints" : [ 1057.0, 630.0, 1044.0, 630.0, 1044.0, 591.0, 1129.25, 591.0 ],
					"source" : [ "obj-292", 0 ]
				}

			}
, 			{
				"patchline" : 				{
					"destination" : [ "obj-302", 0 ],
					"midpoints" : [ 347.25, 624.0, 347.25, 624.0 ],
					"source" : [ "obj-300", 0 ]
				}

			}
, 			{
				"patchline" : 				{
					"destination" : [ "obj-303", 0 ],
					"midpoints" : [ 405.5, 624.0, 405.5, 624.0 ],
					"source" : [ "obj-301", 0 ]
				}

			}
, 			{
				"patchline" : 				{
					"destination" : [ "obj-215", 2 ],
					"midpoints" : [ 347.25, 657.0, 330.0, 657.0, 330.0, 588.0, 263.200012, 588.0 ],
					"source" : [ "obj-302", 0 ]
				}

			}
, 			{
				"patchline" : 				{
					"destination" : [ "obj-215", 1 ],
					"midpoints" : [ 405.5, 657.0, 387.0, 657.0, 387.0, 588.0, 244.600006, 588.0 ],
					"source" : [ "obj-303", 0 ]
				}

			}
, 			{
				"patchline" : 				{
					"destination" : [ "obj-331", 0 ],
					"midpoints" : [ 712.25, 459.0, 732.25, 459.0 ],
					"order" : 3,
					"source" : [ "obj-325", 0 ]
				}

			}
, 			{
				"patchline" : 				{
					"destination" : [ "obj-334", 0 ],
					"midpoints" : [ 712.25, 459.0, 717.0, 459.0, 717.0, 849.0, 737.25, 849.0 ],
					"order" : 0,
					"source" : [ "obj-325", 0 ]
				}

			}
, 			{
				"patchline" : 				{
					"destination" : [ "obj-340", 0 ],
					"midpoints" : [ 712.25, 459.0, 717.0, 459.0, 717.0, 588.0, 732.25, 588.0 ],
					"order" : 2,
					"source" : [ "obj-325", 0 ]
				}

			}
, 			{
				"patchline" : 				{
					"destination" : [ "obj-343", 0 ],
					"midpoints" : [ 712.25, 459.0, 717.0, 459.0, 717.0, 717.0, 732.25, 717.0 ],
					"order" : 1,
					"source" : [ "obj-325", 0 ]
				}

			}
, 			{
				"patchline" : 				{
					"destination" : [ "obj-36", 0 ],
					"order" : 4,
					"source" : [ "obj-325", 0 ]
				}

			}
, 			{
				"patchline" : 				{
					"destination" : [ "obj-222", 0 ],
					"midpoints" : [ 786.25, 543.0, 831.0, 543.0, 831.0, 471.0, 854.5, 471.0 ],
					"source" : [ "obj-329", 0 ]
				}

			}
, 			{
				"patchline" : 				{
					"destination" : [ "obj-329", 0 ],
					"midpoints" : [ 732.25, 534.0, 717.0, 534.0, 717.0, 504.0, 786.25, 504.0 ],
					"source" : [ "obj-330", 0 ]
				}

			}
, 			{
				"patchline" : 				{
					"destination" : [ "obj-330", 0 ],
					"midpoints" : [ 732.25, 501.0, 732.25, 501.0 ],
					"source" : [ "obj-331", 0 ]
				}

			}
, 			{
				"patchline" : 				{
					"destination" : [ "obj-48", 0 ],
					"source" : [ "obj-332", 0 ]
				}

			}
, 			{
				"patchline" : 				{
					"destination" : [ "obj-332", 0 ],
					"midpoints" : [ 737.25, 930.0, 777.0, 930.0, 777.0, 891.0, 791.25, 891.0 ],
					"source" : [ "obj-333", 0 ]
				}

			}
, 			{
				"patchline" : 				{
					"destination" : [ "obj-333", 0 ],
					"midpoints" : [ 737.25, 888.0, 737.25, 888.0 ],
					"source" : [ "obj-334", 0 ]
				}

			}
, 			{
				"patchline" : 				{
					"destination" : [ "obj-204", 0 ],
					"midpoints" : [ 786.25, 666.0, 828.0, 666.0, 828.0, 600.0, 850.75, 600.0 ],
					"source" : [ "obj-338", 0 ]
				}

			}
, 			{
				"patchline" : 				{
					"destination" : [ "obj-338", 0 ],
					"midpoints" : [ 732.25, 657.0, 717.0, 657.0, 717.0, 630.0, 786.25, 630.0 ],
					"source" : [ "obj-339", 0 ]
				}

			}
, 			{
				"patchline" : 				{
					"destination" : [ "obj-41", 0 ],
					"midpoints" : [ 786.25, 407.0, 828.0, 407.0, 828.0, 341.0, 850.75, 341.0 ],
					"source" : [ "obj-34", 0 ]
				}

			}
, 			{
				"patchline" : 				{
					"destination" : [ "obj-339", 0 ],
					"midpoints" : [ 732.25, 624.0, 732.25, 624.0 ],
					"source" : [ "obj-340", 0 ]
				}

			}
, 			{
				"patchline" : 				{
					"destination" : [ "obj-153", 0 ],
					"midpoints" : [ 786.25, 798.0, 828.0, 798.0, 828.0, 726.0, 850.75, 726.0 ],
					"source" : [ "obj-341", 0 ]
				}

			}
, 			{
				"patchline" : 				{
					"destination" : [ "obj-341", 0 ],
					"midpoints" : [ 732.25, 789.0, 717.0, 789.0, 717.0, 759.0, 786.25, 759.0 ],
					"source" : [ "obj-342", 0 ]
				}

			}
, 			{
				"patchline" : 				{
					"destination" : [ "obj-342", 0 ],
					"midpoints" : [ 732.25, 756.0, 732.25, 756.0 ],
					"source" : [ "obj-343", 0 ]
				}

			}
, 			{
				"patchline" : 				{
					"destination" : [ "obj-34", 0 ],
					"midpoints" : [ 732.25, 398.0, 717.0, 398.0, 717.0, 371.0, 786.25, 371.0 ],
					"source" : [ "obj-35", 0 ]
				}

			}
, 			{
				"patchline" : 				{
					"destination" : [ "obj-35", 0 ],
					"midpoints" : [ 732.25, 365.0, 732.25, 365.0 ],
					"source" : [ "obj-36", 0 ]
				}

			}
, 			{
				"patchline" : 				{
					"destination" : [ "obj-39", 1 ],
					"midpoints" : [ 1057.0, 371.0, 1044.0, 371.0, 1044.0, 332.0, 1129.25, 332.0 ],
					"source" : [ "obj-37", 0 ]
				}

			}
, 			{
				"patchline" : 				{
					"destination" : [ "obj-39", 0 ],
					"midpoints" : [ 1021.75, 371.0, 1044.0, 371.0, 1044.0, 332.0, 1117.75, 332.0 ],
					"source" : [ "obj-38", 0 ]
				}

			}
, 			{
				"patchline" : 				{
					"destination" : [ "obj-42", 0 ],
					"midpoints" : [ 1117.75, 371.0, 1098.0, 371.0, 1098.0, 332.0, 828.0, 332.0, 828.0, 374.0, 850.75, 374.0 ],
					"source" : [ "obj-39", 0 ]
				}

			}
, 			{
				"patchline" : 				{
					"destination" : [ "obj-39", 2 ],
					"midpoints" : [ 964.25, 371.0, 1008.0, 371.0, 1008.0, 332.0, 1140.75, 332.0 ],
					"source" : [ "obj-40", 0 ]
				}

			}
, 			{
				"patchline" : 				{
					"destination" : [ "obj-40", 0 ],
					"midpoints" : [ 850.75, 371.0, 837.0, 371.0, 837.0, 332.0, 964.25, 332.0 ],
					"source" : [ "obj-41", 0 ]
				}

			}
, 			{
				"patchline" : 				{
					"destination" : [ "obj-43", 0 ],
					"midpoints" : [ 850.75, 413.0, 909.0, 413.0, 909.0, 374.0, 923.75, 374.0 ],
					"source" : [ "obj-42", 0 ]
				}

			}
, 			{
				"patchline" : 				{
					"destination" : [ "obj-46", 1 ],
					"midpoints" : [ 1065.0, 887.0, 1092.75, 887.0, 1092.75, 860.0, 1119.0, 860.0 ],
					"source" : [ "obj-44", 0 ]
				}

			}
, 			{
				"patchline" : 				{
					"destination" : [ "obj-44", 0 ],
					"midpoints" : [ 1025.5, 890.0, 1050.75, 890.0, 1050.75, 860.0, 1065.0, 860.0 ],
					"order" : 1,
					"source" : [ "obj-45", 0 ]
				}

			}
, 			{
				"patchline" : 				{
					"destination" : [ "obj-46", 0 ],
					"midpoints" : [ 1025.5, 890.0, 1050.75, 890.0, 1050.75, 848.0, 1107.5, 848.0 ],
					"order" : 0,
					"source" : [ "obj-45", 0 ]
				}

			}
, 			{
				"patchline" : 				{
					"destination" : [ "obj-49", 0 ],
					"midpoints" : [ 1107.5, 887.0, 1083.75, 887.0, 1083.75, 848.0, 831.75, 848.0, 831.75, 890.0, 854.5, 890.0 ],
					"source" : [ "obj-46", 0 ]
				}

			}
, 			{
				"patchline" : 				{
					"destination" : [ "obj-46", 2 ],
					"midpoints" : [ 968.0, 887.0, 1011.75, 887.0, 1011.75, 848.0, 1130.5, 848.0 ],
					"source" : [ "obj-47", 0 ]
				}

			}
, 			{
				"patchline" : 				{
					"destination" : [ "obj-47", 0 ],
					"midpoints" : [ 854.5, 887.0, 831.75, 887.0, 831.75, 848.0, 968.0, 848.0 ],
					"source" : [ "obj-48", 0 ]
				}

			}
, 			{
				"patchline" : 				{
					"destination" : [ "obj-50", 0 ],
					"midpoints" : [ 854.5, 929.0, 912.75, 929.0, 912.75, 893.0, 927.5, 893.0 ],
					"source" : [ "obj-49", 0 ]
				}

			}
, 			{
				"patchline" : 				{
					"destination" : [ "obj-73", 0 ],
					"midpoints" : [ 58.5, 108.0, 58.5, 108.0 ],
					"source" : [ "obj-78", 0 ]
				}

			}
, 			{
				"patchline" : 				{
					"destination" : [ "obj-78", 0 ],
					"midpoints" : [ 58.5, 75.0, 58.5, 75.0 ],
					"source" : [ "obj-80", 0 ]
				}

			}
, 			{
				"patchline" : 				{
					"destination" : [ "obj-78", 0 ],
					"midpoints" : [ 91.5, 75.0, 58.5, 75.0 ],
					"source" : [ "obj-83", 0 ]
				}

			}
 ],
		"dependency_cache" : [  ],
		"autosave" : 0
	}

}
